<?xml version="1.0" standalone="no"?>
<!DOCTYPE svg PUBLIC "-//W3C//DTD SVG 20010904//EN"
 "http://www.w3.org/TR/2001/REC-SVG-20010904/DTD/svg10.dtd">
<svg version="1.0" xmlns="http://www.w3.org/2000/svg"
 width="84.000000pt" height="84.000000pt" viewBox="0 0 84.000000 84.000000"
 preserveAspectRatio="xMidYMid meet">
<metadata>
Created by potrace 1.14, written by Peter Selinger 2001-2017
</metadata>
<g transform="translate(0.000000,84.000000) scale(0.100000,-0.100000)"
fill="#000000" stroke="none">
<path d="M355 724 c-11 -12 -36 -55 -55 -95 -19 -41 -37 -76 -40 -79 -3 -3
-23 -39 -44 -80 -21 -41 -63 -122 -94 -180 -30 -58 -68 -129 -84 -159 -15 -30
-28 -55 -28 -57 0 -2 32 -2 72 -1 l71 2 48 88 c26 48 44 87 41 87 -4 0 -2 4 3
8 6 4 26 39 45 77 19 39 38 72 41 75 3 3 12 20 20 38 8 17 17 32 20 32 3 0 6
6 6 13 0 6 12 31 26 55 15 23 24 42 21 42 -4 0 -2 6 4 13 12 15 72 128 72 136
0 3 -28 6 -62 6 -52 0 -67 -3 -83 -21z"/>
<path d="M682 736 c-5 -6 -33 -56 -62 -111 -29 -55 -57 -106 -63 -112 -5 -7
-6 -13 -2 -13 4 0 2 -6 -4 -13 -6 -8 -34 -58 -62 -113 -28 -54 -73 -141 -101
-191 -27 -51 -47 -97 -44 -101 6 -10 127 -5 137 6 4 4 29 50 57 102 125 237
157 300 193 369 21 40 44 80 51 89 7 8 11 16 9 16 -2 1 6 20 18 43 l21 43 -69
-1 c-40 -1 -74 -6 -79 -13z"/>
</g>
</svg>
